<?xml version="1.0" encoding="UTF-8"?>
<!-- Uploaded to: SVG Find, www.svgfind.com, Generator: SVG Find Mixer Tools -->
<svg fill="#000000" width="800px" height="800px" version="1.1" viewBox="144 144 512 512" xmlns="http://www.w3.org/2000/svg">
 <g>
  <path d="m204.49 444.02c-2.6445 49.348 5.0938 102.27 40.102 137.11 15.5 15.422 35.59 25.848 58.156 30.754 2.3008 6.4023 29.426 33.52 74.996 33.52 146.22 0 279.19-307.96 188.71-337.08-10.945-3.5156-22.898-2.3828-32.793 3.1211-3.9531 2.1992-7.3555 5.0195-10.188 8.2812-0.003906-3.125-0.09375-6.2773-0.19531-9.4297 16.812-2.1875 32.754-10.352 44.047-23.215 1.9531-2.2227 1.7305-5.6094-0.49219-7.5625-2.2227-1.9492-5.6094-1.7305-7.5625 0.49219-9.2383 10.52-22.633 17.41-36.586 19.484-0.22656-3.0898-0.52734-6.1758-0.87891-9.2656 11.215-2.8945 21.613-8.8242 29.672-17.238 2.0469-2.1367 1.9727-5.5312-0.16406-7.5781-2.1367-2.043-5.5273-1.9727-7.5781 0.16406-6.3945 6.6758-14.574 11.449-23.414 13.953-0.375-2.2656-0.78516-4.5312-1.2422-6.7891 13.809-4.3164 25.715-14.512 31.539-27.906 1.1797-2.7148-0.0625-5.8711-2.7773-7.0547-2.7109-1.1875-5.875 0.058594-7.0547 2.7773-4.418 10.156-13.652 18.191-24.219 21.75-5.7305-21.402-15.238-40.227-27.793-55.289 0.25-0.38281 0.48828-0.77734 0.63672-1.2305 6.1055-18.605 3.8242-30.086-3.2227-44.367-7.6602-15.535-27.922-1.5781-38.781 11.922-0.5625 0.69922-0.85156 1.4961-1.0156 2.3203-13.754-5.5508-28.965-8.457-45.02-8.457-27.137 0-54.941 8.1953-78.289 23.07-37.398 23.828-67.363 63.719-89.059 118.57-17.105 43.246-27.043 88.727-29.531 135.18zm139.63 175.04c-0.71875 2.9141-0.39844 6.1172 1.5703 8.9414 0.066406 0.19141 0.082031 0.39844 0.15625 0.58984 0.13672 0.36328 0.30469 0.70312 0.46484 1.0469-10.016-3.4062-19.109-8.4844-26.672-15.055 8.9258 0.79297 16.676 0.71484 24.91 0.015624-0.80859 2.5977-0.45312 3.75-0.42969 4.4609zm19.078 14.59c4.5-4.3281 5.7461-11.668 2.1484-17.07-0.19141-1.8203-0.88281-3.5-1.8945-4.9453 11.504-2.5312 17.516-4.793 24.125-7.5508-0.58984 4.5977 1.918 9.125 6.0898 11.094 2.4492 6.7422 3.2852 11.953 9.9609 16.23-13.586 3.4922-27.418 4.1211-40.43 2.2422zm61.211-50.961c1.6641 5.3594 5.0703 6.5039 8.7422 7.4805 4.5625 4.418 9.3125 15.477 18.184 18.168-9.2148 6.5469-18.441 11.93-27.734 16.043 0.62109-5.832-3.6992-10.957-8.3164-11.812-2.043-7.0195-4.7891-13.176-11.48-16.352 7.1055-3.957 13.98-8.4805 20.605-13.527zm40.707 14.965c0.20312-6.6055-4.207-7.0898-8.4531-11.742-3.7109-5.0898-8.4062-13.527-16.949-16.254 7.625-7.2383 14.809-15.227 21.484-23.918 2.5859 5.1055 9.043 5.0156 14.355 9.1875 6.9844 5.4844 2.8008 13.648 10.887 17.031 0.83594 0.98828 1.8242 1.8086 2.9062 2.4414-0.23438 0.25391-0.45703 0.51953-0.69141 0.77344-7.8789 8.4414-15.715 15.867-23.539 22.48zm54.223-168.12c-3.4062-0.54688-6.2891 0.38281-8.5195 2.0742 2.3047-10.645 4.332-21.867 6.0859-33.828 5.6602 5.1172 10.504 0.16016 31.871 7.3008 8.5742 2.8672 18.164 10.504 27.898 6.3672-3.6445 14.996-8.2539 29.754-13.754 44.176-5.3984-9.2305-23.074-22.801-43.582-26.09zm-13.484 22.52c1.2852 1.6094 3.0156 2.8867 5.2461 3.4492 32.719 8.2695 36.637 18.312 44.93 16.879-5.3633 12.23-11.363 24.176-18.012 35.758-1.9414-7.8477-9.5078-12.812-18.078-16.383-5.3281-4.9688-8.0742-2.4766-21.758-7.332-0.95313-0.33594-1.8555-0.51562-2.7227-0.60156 3.8828-10.023 7.3359-20.562 10.395-31.77zm-19.039 51.719c3.1836 3.4805 18.926 10.824 23.363 12.789 4.875 5.6133 11.723 8.1133 17.984 7.7148-7.6641 11.891-16.008 23.332-25.004 34.254-2.9531-4.7969-2.9336-4.8906-3.9102-5.9453-4.8164-12.27-11.766-16.418-23.23-21.395-1.25-0.54297-2.543-0.90625-3.8281-1.0977 6.0352-9.4297 10.449-17.613 14.625-26.32zm93.613-109.79c-14.488-16.074-35.406-19.547-55.871-22.148-1.707-0.21875-3.1523-0.015625-4.4258 0.40625 0.63672-5.8438 1.2656-12.465 3.1523-22.332 2.1055 2.6523 5.1406 4.4492 8.8945 4.9219 11.762 4.8398 32.652 9.9531 44.504 7.0117 3.1602 0.097656 6.0273-1.6641 8.2617-3.8789 0.066406 3.793-2.6328 26.18-4.5156 36.02zm-251.58-194.66c21.648-13.793 47.406-21.391 72.527-21.391 55.02 0 90.727 35.41 104.64 86.348-0.074219 0.003906-0.14453 0.019531-0.21484 0.023437-2.957 0.09375-5.2812 2.5664-5.1875 5.5273 0.089844 2.8984 2.4727 5.1914 5.3555 5.1914 0.058594 0 0.11328 0 0.17188-0.003906 0.8125-0.027344 1.6055-0.19141 2.4102-0.25781 0.44922 2.1992 0.84375 4.4062 1.207 6.6172-0.62891 0.042968-1.2539 0.13281-1.8867 0.15234-2.957 0.085937-5.2852 2.5586-5.1992 5.5156 0.085937 2.9062 2.4688 5.1992 5.3555 5.1992 0.050781 0 0.10547 0 0.16406-0.003906 1.0117-0.03125 2.0156-0.16016 3.0273-0.24219 0.30078 2.6992 0.5625 5.3906 0.76562 8.0898-1.7344-0.0625-3.4766-0.10938-5.1914-0.33594-2.9062-0.37109-5.6289 1.6758-6.0156 4.6133-0.38672 2.9375 1.6758 5.6289 4.6133 6.0156 2.3906 0.31641 4.7891 0.41016 7.1836 0.46875 1.4062 44.352-8.3867 133.32-36.523 190.62-56.066 114.15-169.91 125.81-223.9 72.078-7.2539-7.2188-13.434-15.562-18.586-24.945 6.6523 2.3477 21.418-3.7773 27.828-6.8281 3.9336 0.20312 7.8633 0.34766 11.789 0.28516 15.891-0.25391 27.645-12.977 24.309-28.637-0.72266-3.3945-4.0586-6.8047-7.4883-7.4883-40.277-8.0234-43.691 2.4141-60.262-0.097656-1.9023-0.28906-3.625-0.085937-5.1875 0.41016-1.9141-0.53516-3.9102-0.59766-5.8242-0.14062-2.75-14.078-4.0664-29.562-3.9609-46.406 20.43 2.6914 38.742 0.99609 85.543-1.3633 4.8438-0.24219 14.918-0.75391 19.578-8.6641 1.9336-3.2773 2.4102-7.2617 1.3398-11.215-1.2422-4.5938-4.4492-8.7109-8.5742-11.016-8.6328-4.8203-18.309-2.6094-27.203-0.066406-10.91 3.1211-14.812 3.9883-33.75-2.1836-9.8594-2.7266-21.508-7.5-34.609-3.2852 1.25-11.574 2.9844-23.062 5.1875-34.465 23.242 9.5117 72.477 21.922 93.809 13.047 2.8477-1.1836 5.582-2.8789 7.9062-4.9062 8.5-7.4219 2.9102-21.535-8.3516-21.121-26.086 0.97266-18.844-10.191-53.902-17.207l-30.734-6.1445c3.4141-11.855 7.332-23.578 11.797-35.141 0.011718-0.003907 0.023437 0 0.035156-0.007813 7.457-2.9297 20.324-0.73438 27.195 3.0703 19.055 10.566 26.086 19.566 56.691 13.617 9.6367-1.8711 13.414-13.793 6.4414-20.688-7.9375-7.8047-12.301-5.5508-15.477-16.277-7.3398-24.691-29.035-16.816-57.199-18.605 18.598-34.551 41.488-60.637 68.352-77.754z"/>
  <path d="m350.77 251.77c20.219-1.1641 35.82-15.594 34.922-19.129 1.9297-9.4844-35.785-44.527-50.711-33.25-3.5078 2.6523-5.4102 6.8828-5.0781 11.316 1.0508 14.234 5.8633 27.883 13.918 39.473 1.4062 2.0195 4.2305 3.0742 6.9492 1.5898z"/>
  <path d="m486.87 278.43c-3.1562-6.3398-12.758-1.5703-9.5938 4.7852 2.7344 5.4883 0.16406 13.324-5.2852 16.125-5.457 2.8047-13.324 0.32812-16.191-5.0938-2.4258-4.5859-9.3789-3.3672-10.051 1.8164-0.71875 5.5-6.6602 10.113-12.121 9.4883-5.5156-0.62891-10.223-6.4453-9.6836-11.969 0.6875-7.0469-9.9805-8.1211-10.668-1.043-2.0469 20.879 25.859 33.527 39.484 14.07 20.766 15.098 44.031-8.2656 34.109-28.18z"/>
  <path d="m394.05 259.34c-10.016 2.1289-17.211 12.84-15.406 22.914 1.2539 6.9766 11.801 5.0938 10.551-1.8906-0.80469-4.4727 2.6406-9.5938 7.0859-10.543 4.418-0.94141 9.6719 2.332 10.766 6.7422 1.7031 6.8867 12.105 4.3164 10.406-2.5664-2.4531-9.9297-13.41-16.789-23.402-14.656z"/>
  <path d="m477.64 262.24c0.070313-1.6016 0.91406-3.2461 2.3203-4.5156 2.8828-2.6055 6.5625-2.4883 9.2188 0.51172 1.25 1.4141 1.9102 3.1445 1.8047 4.7422-0.19531 2.9531 2.043 5.5039 5 5.6992 0.11719 0.007812 0.23828 0.011718 0.35547 0.011718 2.8008 0 5.1562-2.1758 5.3438-5.0078 0.28906-4.4375-1.3438-9.0117-4.4805-12.551-3.1367-3.543-7.4805-5.7148-11.922-5.9609-4.4297-0.24609-8.9961 1.4336-12.504 4.6094-3.5117 3.1758-5.6406 7.543-5.8398 11.984-0.32422 7.125 10.391 7.4688 10.703 0.47656z"/>
  <path d="m448.16 285.93c28.898-4.7969 18.406-37.371-7.2422-31.938-24.328 5.1484-21.836 36.785 7.2422 31.938z"/>
  <path d="m386.29 309.74c6.8477 0 7.207-10.227 0.37109-10.707-31.887-2.2422-38.227-22.141-44.93-13.703-1.8438 2.3164-1.4609 5.6875 0.85547 7.5273 13.773 10.965 32.254 16.883 43.703 16.883z"/>
  <path d="m344.59 321.93c12.859 4.9805 30.48 7.9492 43.539 3.1758 6.6562-2.4375 2.9805-12.504-3.6797-10.07-10.625 3.8906-26.027 0.75781-35.988-3.1055-6.6172-2.5469-10.473 7.4414-3.8711 10z"/>
  <path d="m400.3 337.39c2.4922-1.5977 3.2227-4.9102 1.625-7.4023-5.6953-8.9102-13.305 8.9805-46.145 11.023-6.8594 0.42578-6.5508 10.707 0.32812 10.707 0.10938 0.003906 29.516-4.9375 44.191-14.328z"/>
  <path d="m402.42 372.65c-1.1328 2.7344 0.16797 5.8711 2.9023 7 7.3203 3.0352 14.855 6.1953 21.152 10.746-4.3438-0.18359-8.7578 0.94531-12.664 3.2031-7.5586 4.3672-11.309 12.801-11.66 21.211-0.085938 2.043 0.23047 4.0078 0.75391 5.9219-14.289-6.2617-27.121-15.938-36.867-28.094-1.8594-2.3125-5.2266-2.6797-7.5352-0.82812-2.3125 1.8516-2.6797 5.2266-0.82812 7.5352 13.594 16.953 32.559 29.68 53.402 35.832 3.8555 1.1367 8.7383 2.3164 13.863 2.3164 4.0977 0 8.3438-0.75 12.352-2.8672 9.2344-4.8711 14.508-16.613 12.539-27.914-1.582-9.082-7.3438-17.758-16.219-24.418-7.5078-5.6367-15.988-9.1484-24.195-12.543-2.7305-1.1406-5.8672 0.16406-6.9961 2.8984z"/>
  <path d="m400.34 313.99v0.44531c0 3.2656 5.3594 3.3789 5.3594-0.44531 0-1.4805-1.1992-2.6797-2.6797-2.6797s-2.6797 1.1992-2.6797 2.6797z"/>
  <path d="m397.1 304.95c-1.6953 1.6953-0.46875 4.5742 1.8945 4.5742 2.2344 0 4.2969-3.0664 2.3438-5.0234-1.0469-1.0469-2.7422-1.0469-3.7891 0z"/>
  <path d="m401.68 289.43h-0.44922c-3.2461 0-3.3945 5.3594 0.44922 5.3594 1.4805 0 2.6797-1.1992 2.6797-2.6797s-1.1992-2.6797-2.6797-2.6797z"/>
  <path d="m406.03 300.04-0.44531 0.44531c-1.6953 1.6953-0.46875 4.5742 1.8945 4.5742 2.2383 0 4.293-3.0664 2.3398-5.0195-1.0469-1.0469-2.7422-1.0469-3.7891 0z"/>
  <path d="m417.42 318.35-0.44922-0.44922c-2.5078-2.5078-6.2969 1.2812-3.7891 3.7891l0.44922 0.44922c2.5078 2.5078 6.293-1.2812 3.7891-3.7891z"/>
  <path d="m394.53 318.01c-3.5469 0-3.543 5.3594 0 5.3594h0.89453c3.5469 0 3.543-5.3594 0-5.3594z"/>
  <path d="m489.81 305.39c-0.53516 0.49609-4.1797 1.2656-2.6016 4.3438 0.68359 1.3281 2.3047 1.8281 3.6094 1.1602l1.4102-0.71875c3.1719-1.6055 0.73438-6.3945-2.418-4.7852z"/>
  <path d="m495.47 291.66c-1.4805 0-2.6797 1.1992-2.6797 2.6797v0.44922c0 1.4805 1.1992 2.457 2.6797 2.457 3.3398 0 3.7188-5.5859 0-5.5859z"/>
  <path d="m491.9 275.58h-0.44922c-3.2617 0-3.3828 5.3594 0.44922 5.3594 1.4805 0 2.6797-1.1992 2.6797-2.6797 0-1.4844-1.1992-2.6797-2.6797-2.6797z"/>
  <path d="m499.94 284.52c0-1.4805-1.1992-2.6797-2.6797-2.6797h-0.89453c-3.5469 0-3.543 5.3594 0 5.3594h0.89453c1.4805 0 2.6797-1.1992 2.6797-2.6797z"/>
  <path d="m501.72 316.45c1.4805 0 2.6797-1.4219 2.6797-2.9023s-1.1992-2.6797-2.6797-2.6797c-3.3867 0-3.7852 5.582 0 5.582z"/>
  <path d="m390.96 207.69c0.68359 0 1.3711-0.26172 1.8945-0.78516l0.44922-0.44922c1.0469-1.0469 1.0469-2.7422 0-3.7891s-2.7422-1.0469-3.7891 0l-0.44922 0.44922c-1.0469 1.0469-1.0469 2.7422 0 3.7891 0.52344 0.52344 1.207 0.78516 1.8945 0.78516z"/>
  <path d="m400.38 190.05c0.17969 0 0.35156-0.019531 0.51953-0.050781 1.0781-0.23828 2.1797-1.3711 2.3516-2.4609 0.12109-0.77344-0.097656-1.5234-0.55078-2.0898-0.34375-0.64453-0.95703-1.1484-1.7266-1.3398-1.0781-0.25391-2.5469 0.3125-3.1836 1.2188-0.63672 0.90234-0.68359 2.4961-0.066406 3.418 0.51953 0.77344 1.6641 1.3047 2.6562 1.3047z"/>
  <path d="m428.92 218.41c-1.4805 0-2.457 1.1992-2.457 2.6797 0 1.4805 1.4219 2.6797 2.9023 2.6797 1.4805 0 2.6797-1.1992 2.6797-2.6797 0-1.4805-1.1992-2.6797-2.6797-2.6797z"/>
  <path d="m407.71 215.82c0.45703 0.30469 0.97266 0.45313 1.4844 0.45313 0.86719 0 1.7148-0.41797 2.2305-1.1914 0.25781-0.38281 0.39844-0.80469 0.44141-1.2344 0.25-0.34766 0.42188-0.76172 0.48047-1.2188 0.19531-1.4688-0.83984-2.8125-2.3086-3.0039-1.543-0.19141-2.9805 0.71094-3.543 2.2031-0.5625 1.5-0.0625 3.1406 1.2148 3.9922z"/>
  <path d="m421.33 196.97c1.4805 0 2.6797-1.1992 2.6797-2.6797s-1.1992-2.6797-2.6797-2.6797h-0.44531c-1.4805 0-2.457 1.1992-2.457 2.6797s1.418 2.6797 2.9023 2.6797z"/>
  <path d="m447.87 199.13c2.2031 0 3.3398-2.3203 2.4023-4.1133l-0.3125-0.58984c-0.69531-1.3125-2.3164-1.8125-3.6211-1.1094-1.3086 0.69531-1.8047 2.3164-1.1094 3.6211 0.42578 0.53125 0.65234 2.1914 2.6406 2.1914z"/>
  <path d="m459.74 215.95c1.4805 0 2.6797-1.4219 2.6797-2.9023s-1.1992-2.6797-2.6797-2.6797-2.6797 1.1992-2.6797 2.6797v0.44922c0 1.4805 1.1992 2.4531 2.6797 2.4531z"/>
  <path d="m399 234.94v0.89062c0 3.5469 5.3594 3.543 5.3594 0v-0.89062c0-1.4805-1.1992-2.6797-2.6797-2.6797s-2.6797 1.1992-2.6797 2.6797z"/>
  <path d="m368.62 195.63c1.4805 0 2.6797-1.1992 2.6797-2.6797v-0.44922c0-1.4805-1.1992-2.4531-2.6797-2.4531s-2.6797 1.4219-2.6797 2.9023 1.1992 2.6797 2.6797 2.6797z"/>
  <path d="m390.85 222.75-1.6797-2.1094 1.8945 1.8945c1.0469-1.0469 1.0469-2.7422 0-3.7891s-2.7422-1.0469-3.7891 0l-0.44531 0.44922 1.8945 1.8945z"/>
  <path d="m432.83 207.36c0.49609 0.49609 1.1133 0.73047 1.7305 0.73047 0.69141 0 1.3906-0.28906 1.9414-0.83594 1.0469-1.043 0.94141-2.8477-0.10156-3.8984 0 0-0.22656-0.23047-0.23047-0.23437-1.0469-1.0469-2.7422-1.0469-3.7891 0-1.0469 1.0469-1.0469 2.7422 0 3.7891z"/>
  <path d="m428.11 187.57c0.19531 0 0.38672-0.019531 0.5625-0.066406 0.76562-0.1875 1.3672-0.6875 1.7148-1.3281 0.46094-0.57422 0.68359-1.3359 0.55078-2.1211-0.18359-1.0859-1.2969-2.2148-2.375-2.4414-1.0898-0.21875-2.543 0.35547-3.1523 1.2734-0.60547 0.92188-0.55859 2.5117 0.078125 3.4102 0.53125 0.75 1.6445 1.2734 2.6211 1.2734z"/>
  <path d="m474.27 223.71 2.375-1.2383 2.1406-1.6914-2.6055 0.80469 2.375-1.2383c-0.68359-1.3125-2.3125-1.8203-3.6172-1.1367-1.3125 0.68359-1.8203 2.3047-1.1367 3.6172z"/>
  <path d="m387.83 577.06c-1.4805 0-2.6797 1.1992-2.6797 2.6797v0.44922c0 1.4805 1.1992 2.457 2.6797 2.457s2.6797-1.4219 2.6797-2.9062c0-1.4805-1.1992-2.6797-2.6797-2.6797z"/>
  <path d="m398.1 531.28c-1.4805 0-2.6797 1.4219-2.6797 2.9023 0 1.4805 1.1992 2.6797 2.6797 2.6797 1.4805 0 2.6797-1.1992 2.6797-2.6797v-0.44531c0-1.4805-1.1953-2.457-2.6797-2.457z"/>
  <path d="m430.55 525.96c-0.35938-1.4414-1.8125-2.3125-3.2461-1.9492-1.4375 0.35938-2.3125 1.8125-1.9492 3.2461l0.45703 1.7969c0.30859 1.2109 1.3984 2.0195 2.5938 2.0195 0.21875 0 0.44141-0.027344 0.66797-0.082031 1.4297-0.36719 2.2969-1.8281 1.9297-3.2578z"/>
  <path d="m426.93 556.71c-0.82031-0.35547-1.7969-0.30078-2.5938 0.23828-1.2227 0.83203-1.5391 2.5-0.70312 3.7227 2.7695 4.0586 9.3359-0.25391 5.8359-3.3867-0.71484-0.63672-1.6914-0.82812-2.5391-0.57422z"/>
  <path d="m404.33 565.49c-0.40234 0.070312-0.77344 0.23047-1.0859 0.45703-0.37109 0.10156-0.72656 0.28516-1.0352 0.55078-1.1211 0.96484-1.25 2.6562-0.28125 3.7773 0.60156 0.69922 1.4453 1.0664 2.3281 1.0664 0.46875 0 0.94922-0.10547 1.4023-0.32031 1.2891-0.61328 2.0234-1.9961 1.7812-3.3672-0.26172-1.4453-1.6133-2.4258-3.1094-2.1641z"/>
  <path d="m382.34 555.46-0.90234-0.45312c-1.3281-0.65625-2.9297-0.125-3.5977 1.1992-0.66016 1.3242-0.125 2.9336 1.1992 3.5977l0.88281 0.44141c0.38672 0.19531 0.79688 0.28906 1.2031 0.28906 0.98047 0 1.9219-0.53906 2.3945-1.4727 0.67188-1.3242 0.14062-2.9336-1.1797-3.6016z"/>
  <path d="m362.82 547.81c-1.4805 0-2.6797 1.4219-2.6797 2.9023 0 1.4805 1.1992 2.6797 2.6797 2.6797 1.4805 0 2.6797-1.1992 2.6797-2.6797v-0.44922c0-1.4805-1.1992-2.4531-2.6797-2.4531z"/>
  <path d="m359.69 589.12h-0.44531c-1.4805 0-2.457 1.1992-2.457 2.6797s1.4219 2.6797 2.9023 2.6797c1.4805 0 2.6797-1.1992 2.6797-2.6797s-1.1992-2.6797-2.6797-2.6797z"/>
  <path d="m356.12 564.56c0 1.4805 1.1992 2.6797 2.6797 2.6797s2.6797-1.1992 2.6797-2.6797v-0.44922c0-1.4805-1.1992-2.457-2.6797-2.457s-2.6797 1.4258-2.6797 2.9062z"/>
  <path d="m359.25 581.98c1.4805 0 2.6797-1.1992 2.6797-2.6797s-1.1992-2.6797-2.6797-2.6797h-0.89453c-1.4805 0-2.6797 1.1992-2.6797 2.6797s1.1992 2.6797 2.6797 2.6797z"/>
  <path d="m322.51 596.61c-1.6953 1.6953-0.46875 4.5742 1.8945 4.5742 1.5625 0 2.1758-1.1875 2.7852-1.6758 1.0469-1.0469 1.0469-2.7422 0-3.7891-2.3164-2.3164-4.1406 0.60547-4.6797 0.89062z"/>
  <path d="m330.66 579.3c-1.4805 0-2.6797 1.1992-2.6797 2.6797v0.89063c0 1.4805 1.1992 2.6797 2.6797 2.6797 1.4805 0 2.6797-1.1992 2.6797-2.6797v-0.89063c0-1.4805-1.1992-2.6797-2.6797-2.6797z"/>
  <path d="m337.49 558.39c-0.78516-0.16797-1.6289 0.019531-2.2891 0.58203-1.0898 0.92578-1.2969 2.6758-0.41406 3.8086 0.53516 0.69531 1.4805 1.0742 2.3945 1.0742 0.58203 0 1.1523-0.15625 1.6094-0.47266 1.1719-0.82812 1.4883-2.5586 0.71484-3.7656-0.46484-0.72656-1.2188-1.1523-2.0156-1.2266z"/>
  <path d="m344.06 583.54c-1.4805 0-2.6797 1.4219-2.6797 2.9023 0 1.4805 1.1992 2.6797 2.6797 2.6797 1.4805 0 2.6797-1.1992 2.6797-2.6797v-0.44531c0-1.4805-1.1992-2.457-2.6797-2.457z"/>
  <path d="m406.24 549.26c-1.0547-1.043-2.75-1.0352-3.7891 0.015626-1.043 1.0508-1.0352 2.7461 0.015625 3.7891l0.875 0.875c0.52344 0.52734 1.2109 0.79297 1.9023 0.79297 0.68359 0 1.3633-0.25781 1.8867-0.77734 1.0508-1.043 1.0586-2.7383 0.015626-3.7891z"/>
  <path d="m411.64 511.32-1.7969-0.38672c-1.4492-0.33203-2.8711 0.61328-3.1797 2.0586-0.3125 1.4453 0.61328 2.8711 2.0586 3.1797l1.7969 0.38672c0.1875 0.042968 0.375 0.058593 0.5625 0.058593 1.2383 0 2.3477-0.85938 2.6172-2.1211 0.3125-1.4414-0.60938-2.8672-2.0586-3.1758z"/>
  <path d="m424.76 543.73c1.3242-0.66016 1.8594-2.2695 1.1992-3.5977-0.66406-1.3242-2.2734-1.8555-3.5977-1.1992l-0.89453 0.44922c-1.3242 0.66016-1.8594 2.2695-1.1992 3.5977 0.47266 0.94141 1.418 1.4805 2.3984 1.4805 0.40234 0 0.8125-0.089844 1.1953-0.28125z"/>
  <path d="m449.45 518.9c-1.3047-0.68359-2.9297-0.17969-3.6172 1.1367l-0.46484 0.90234c-0.67578 1.3203-0.15625 2.9336 1.1602 3.6094 0.39062 0.20312 0.8125 0.29688 1.2227 0.29688 0.97266 0 1.9141-0.53125 2.3867-1.457l0.44922-0.87109c0.67969-1.3125 0.17578-2.9297-1.1367-3.6172z"/>
  <path d="m445.35 488.11c0.83203 0 1.6523-0.38672 2.1758-1.1094l0.94531-1.3047c0.86719-1.1992 0.59766-2.875-0.60156-3.7422-1.2031-0.86719-2.875-0.59766-3.7422 0.60156l-0.94531 1.3047c-0.86719 1.1992-0.59766 2.875 0.60156 3.7422 0.47266 0.34375 1.0234 0.50781 1.5664 0.50781z"/>
  <path d="m422.05 497.92c0.96094 0 1.8906-0.51953 2.3711-1.4258l0.9375-1.7734c0.6875-1.3125 0.17969-2.9297-1.1289-3.6211-1.3164-0.67969-2.9336-0.17969-3.6211 1.1289l-0.92578 1.7578c-0.69531 1.3086-0.19531 2.9297 1.1133 3.6211 0.40234 0.21094 0.83203 0.3125 1.2539 0.3125z"/>
  <path d="m435.4 501.7c-1.1992-0.23047-2.4688 0.39062-2.9766 1.5664-0.35938 0.82812-0.21094 2.2852 0.28125 3.0391 0.49219 0.75 1.7578 1.457 2.6562 1.4609h0.011719c0.89844 0 2.168-0.69141 2.668-1.4297 0.5-0.74609 0.66406-2.1914 0.32422-3.0273-0.49219-1.1914-1.7539-1.8516-2.9648-1.6094z"/>
  <path d="m441.57 538.26-1.7773 1.3281c-1.1875 0.88281-1.4297 2.5664-0.54688 3.75 0.52734 0.70703 1.332 1.0781 2.1523 1.0781 0.55859 0 1.1172-0.17187 1.5977-0.53125l1.7969-1.3438c1.1836-0.89062 1.418-2.5703 0.52734-3.7539-0.88672-1.1758-2.5664-1.418-3.75-0.52734z"/>
  <path d="m463.07 502.07c-0.72656-0.039062-1.4531 0.19531-2.0156 0.73438-0.79688 0.75391-1.0977 2.207-0.6875 3.2227 0.40625 1.0234 1.6289 1.8672 2.7305 1.8672h0.027344c1.0898-0.011719 2.2969-0.86719 2.6953-1.8828 0.39844-1.0156 0.09375-2.4609-0.69531-3.2148-0.57422-0.53906-1.3359-0.78906-2.0547-0.72656z"/>
  <path d="m463.2 468.42-0.44922 0.44922c-1.0469 1.0469-1.0469 2.7422 0 3.7891 0.52344 0.52344 1.2109 0.78516 1.8945 0.78516 0.68359 0 1.3711-0.26172 1.8945-0.78516l0.44922-0.44922c1.0469-1.0469 1.0469-2.7422 0-3.7891-1.0469-1.0469-2.7422-1.0469-3.7891 0z"/>
  <path d="m443.72 463.01c0.52734 0.55078 1.418 0.86719 2.2539 0.86719 0.35938 0 0.71094-0.058594 1.0156-0.17969 1.0156-0.41016 1.8906-1.6641 1.8906-2.7578 0-0.80469-0.35156-1.5234-0.91406-2.0156-0.48047-0.58203-1.1992-0.96484-2.0195-0.98047-1.1953-0.070312-2.3672 0.82031-2.7969 1.8203-0.42578 0.98438-0.17578 2.4648 0.57031 3.2461z"/>
  <path d="m475.37 484.61c-1.4805 0-2.6797 1.1992-2.6797 2.6797v0.44922c0 1.4805 1.1992 2.457 2.6797 2.457 1.4805 0 2.6797-1.4219 2.6797-2.9062 0-1.4844-1.1992-2.6797-2.6797-2.6797z"/>
  <path d="m481.28 435.04c0.53906 0.69141 1.4766 1.0664 2.3906 1.0664 0.58203 0 1.1602-0.15625 1.6172-0.47656 1.1719-0.83203 1.4805-2.5664 0.70313-3.7695-0.46484-0.71875-1.2109-1.1367-2-1.2148-0.78125-0.17188-1.6328 0.019531-2.293 0.58203-1.0938 0.92969-1.2969 2.6797-0.41797 3.8125z"/>
  <path d="m459.15 437.55-0.88281-0.44141c-1.3203-0.66406-2.9297-0.14062-3.5977 1.1836-0.66797 1.3203-0.13672 2.9336 1.1875 3.5977l0.90234 0.45312c0.38672 0.19141 0.79297 0.28125 1.1953 0.28125 0.98438 0 1.9297-0.54297 2.3984-1.4805 0.66016-1.3242 0.12109-2.9336-1.2031-3.5938z"/>
  <path d="m481.73 452.34c-1.0469-1.0469-2.7422-1.0469-3.7891 0l-0.44922 0.44922c-1.0469 1.0469-1.0469 2.7422 0 3.7891 0.52344 0.52344 1.2109 0.78516 1.8945 0.78516s1.3711-0.26172 1.8945-0.78516l0.44922-0.44922c1.043-1.0469 1.043-2.7422 0-3.7891z"/>
  <path d="m467.09 414.68c-1.0195 0.39062-1.7734 1.5586-1.7969 2.6523-0.019531 1.0898 0.69531 2.2891 1.6992 2.7148 0.32422 0.14062 0.67969 0.20312 1.0352 0.20312 0.74219 0 1.4922-0.28906 2.0156-0.80469 0.55859-0.55078 0.82422-1.2891 0.79297-2.0156 0.054688-0.72656-0.18359-1.4648-0.71875-2.0352-0.75391-0.79297-2.0195-1.0977-3.0273-0.71484z"/>
  <path d="m440.98 445.75h-0.44922c-1.4805 0-2.457 1.1992-2.457 2.6797 0 1.4805 1.4219 2.6797 2.9062 2.6797 1.4805 0 2.6797-1.1992 2.6797-2.6797 0-1.4805-1.1992-2.6797-2.6797-2.6797z"/>
  <path d="m432.94 474.34c0-1.4805-1.1992-2.457-2.6797-2.457s-2.6797 1.4219-2.6797 2.9062c0 1.4805 1.1992 2.6797 2.6797 2.6797s2.6797-1.1992 2.6797-2.6797z"/>
  <path d="m483.52 464.31c-1.0039 0.42969-1.7148 1.6289-1.6992 2.7148 0.019532 1.0898 0.77734 2.2578 1.7969 2.6523 0.29688 0.11328 0.61328 0.16797 0.9375 0.16797 0.77344 0 1.5625-0.32031 2.0898-0.88281 0.53516-0.57031 0.77344-1.3125 0.71875-2.0352 0.03125-0.72656-0.23438-1.4609-0.79297-2.0156-0.78125-0.76562-2.0547-1.0312-3.0508-0.60156z"/>
  <path d="m491.02 439.53h-0.046875c-1.4688-0.26562-2.8398 0.74609-3.0781 2.207-0.17188 1.0352 0.39844 2.3516 1.2734 2.9336 0.52734 0.35547 1.1523 0.53516 1.7812 0.53516 0.58203 0 1.168-0.15625 1.6719-0.46484 0.89453-0.55078 1.5195-1.8398 1.3867-2.8828-0.18359-1.4688-1.5078-2.5156-2.9883-2.3281z"/>
  <path d="m490.07 406.72 0.9375-1.7656c0.69531-1.3086 0.19531-2.9297-1.1133-3.6211-1.3164-0.69922-2.9297-0.19141-3.6211 1.1133l-0.92969 1.7617c-0.69531 1.3047-0.19922 2.9297 1.1094 3.6211 0.39844 0.21484 0.82812 0.3125 1.2539 0.3125 0.95703 0.003906 1.8828-0.51172 2.3633-1.4219z"/>
  <path d="m489.51 370.64c-1.3164-0.67969-2.9336-0.15234-3.6094 1.1602-0.67578 1.3203-0.15625 2.9336 1.1602 3.6094l0.87109 0.44922c0.39453 0.20703 0.82031 0.30469 1.2383 0.30469 0.96484 0 1.8984-0.52344 2.3789-1.4414 0.68359-1.3125 0.17578-2.9297-1.1367-3.6172z"/>
  <path d="m503.62 390.26c-1.0469-1.0469-2.7422-1.0469-3.7891 0-1.0469 1.0469-1.0469 2.7422 0 3.7891l0.44922 0.44922c0.52344 0.52344 1.2109 0.78516 1.8945 0.78516 2.3633 0 3.5898-2.8789 1.8945-4.5742z"/>
  <path d="m476.28 386.7c-1.3125 0.68359-1.8203 2.3047-1.1367 3.6172l0.46484 0.88281 2.375-1.2383 2.1406-1.6875-2.6055 0.80469 2.375-1.2383c-0.68359-1.3203-2.3047-1.8281-3.6133-1.1406z"/>
  <path d="m495.93 413.38c-1.3008 0.625-2.0117 1.9727-1.7656 3.3594 0.23047 1.2969 1.3594 2.2109 2.6367 2.2109 0.15625 0 0.3125-0.011719 0.47266-0.042969 0.40234-0.070312 0.76953-0.23047 1.082-0.45312 0.37891-0.10547 0.74219-0.29297 1.0586-0.57031 1.1133-0.97266 1.2266-2.668 0.25-3.7812-0.92578-1.0586-2.4336-1.3516-3.7344-0.72266z"/>
  <path d="m504.71 362.07c-1.3242-0.66016-2.9336-0.125-3.5977 1.1992l-0.44141 0.88281c-0.66797 1.3203-0.13672 2.9336 1.1875 3.5977 0.38672 0.19531 0.79688 0.28906 1.2031 0.28906 2.5859 0 4.5391-4.5234 1.6484-5.9688z"/>
  <path d="m499.04 353.3c0.40234 0 0.8125-0.089844 1.1953-0.28125l0.89453-0.44531c1.3203-0.66016 1.6367-2.1562 0.97656-3.4805-0.65625-1.3203-2.4727-1.7422-3.8125-1.0977 0 0-0.45312 0.22656-0.45703 0.22656-1.3242 0.66016-1.8594 2.2695-1.1992 3.5977 0.47656 0.9375 1.418 1.4805 2.4023 1.4805z"/>
  <path d="m506.19 332.75c-1.4805 0-2.6797 1.1992-2.6797 2.6797v0.44531c0 1.4805 1.1992 2.457 2.6797 2.457s2.6797-1.4219 2.6797-2.9023c0-1.4844-1.1953-2.6797-2.6797-2.6797z"/>
  <path d="m503.96 322.03c0 1.4805 1.1992 2.4531 2.6797 2.4531s2.6797-1.4219 2.6797-2.9023-1.1992-2.6797-2.6797-2.6797-2.6797 1.1992-2.6797 2.6797z"/>
  <path d="m381.01 530.72-2.1094 1.6797 1.8945-1.8945c-1.0469-1.0469-2.7422-1.0469-3.7891 0s-1.0469 2.7422 0 3.7891l0.44922 0.44531 1.8945-1.8945z"/>
  <path d="m297.95 588.57c-1.6953 1.6953-0.46875 4.5742 1.8945 4.5742 1.4297 0 1.8008-0.82812 2.3438-1.2305 1.043-1.043 0.93359-2.6289-0.10547-3.6758-1.9453-1.9336-4.668 0.57031-4.1328 0.33203z"/>
  <path d="m315.92 573.04c0-1.4805-1.1992-2.6797-2.6797-2.6797h-0.44922c-3.2461 0-3.3945 5.3594 0.44922 5.3594 1.4805 0 2.6797-1.1992 2.6797-2.6797z"/>
  <path d="m314.13 585.55v0.44922c0 1.4805 1.1992 2.4531 2.6797 2.4531s2.6797-1.4219 2.6797-2.9023c0-3.5508-5.3594-3.5469-5.3594 0z"/>
  <path d="m279.09 585.17-0.45703 0.86719c-0.69531 1.3047-0.19922 2.9297 1.1094 3.6211 1.2891 0.69141 2.9219 0.20703 3.6211-1.1094l0.47656-0.90234c1.6367-3.1367-3.1016-5.6211-4.75-2.4766z"/>
  <path d="m265 573.04c-1.4805 0-2.6797 1.1992-2.6797 2.6797 0 1.4805 1.1992 2.6797 2.6797 2.6797h0.44922c1.4805 0 2.4531-1.1992 2.4531-2.6797 0-1.4805-1.4219-2.6797-2.9023-2.6797z"/>
 </g>
</svg>